<?xml version="1.0" encoding="UTF-8"?>
<svg version="1.1" xmlns="http://www.w3.org/2000/svg" width="1024" height="1024">
<path d="M0 0 C337.92 0 675.84 0 1024 0 C1024 337.92 1024 675.84 1024 1024 C686.08 1024 348.16 1024 0 1024 C0 686.08 0 348.16 0 0 Z " fill="#FEFEFC" transform="translate(0,0)"/>
<path d="M0 0 C1.17898999 3.53696996 0.75895002 4.79374954 -0.16015625 8.359375 C-0.59835693 10.08619507 -0.59835693 10.08619507 -1.04541016 11.84790039 C-1.38433977 13.14862641 -1.72337379 14.44932522 -2.0625 15.75 C-2.41533514 17.12797323 -2.76735686 18.50615494 -3.11865234 19.88452148 C-3.92895192 23.0586981 -4.74421503 26.23155556 -5.56201172 29.40380859 C-7.20405083 35.78218306 -8.8225224 42.16649767 -10.44140625 48.55078125 C-15.89689973 70.05078921 -21.37210753 91.54436475 -27 113 C-29.99352913 110.07172491 -32.42151102 107.13032934 -34.8125 103.6875 C-38.78739548 98.14337204 -42.94962453 93.26822791 -48.4375 89.1875 C-48.953125 88.795625 -49.46875 88.40375 -50 88 C-50 87.34 -50 86.68 -50 86 C-59.49895351 93.94810395 -68.70983207 102.75932608 -76.6875 112.25 C-79.9388561 116.10160646 -83.64389344 119.41661896 -87.37646484 122.78735352 C-93.64894188 128.46044308 -99.76246299 134.30453882 -105.25 140.75 C-108.63614992 144.69916772 -112.26684967 148.38022755 -115.9375 152.0625 C-116.79746582 152.9292334 -116.79746582 152.9292334 -117.67480469 153.81347656 C-120.57102744 156.69987606 -123.51442099 159.47062292 -126.625 162.125 C-132.11948185 166.87893565 -137.20207524 172.05283171 -142.32739258 177.19702148 C-144.058947 178.933936 -145.79578359 180.66543889 -147.53320312 182.39648438 C-152.5894275 187.44994423 -157.53715741 192.51349643 -162.17797852 197.95532227 C-166.38028184 202.6711591 -170.95315492 207.05408181 -175.4375 211.5 C-176.4657298 212.52320139 -177.49372626 213.54663733 -178.52148438 214.5703125 C-181.01164338 217.04957999 -183.50492833 219.52567538 -186 222 C-192.39175 216.78151432 -198.15174734 210.96470567 -203.95825577 205.11690903 C-205.78924222 203.27303659 -207.6234415 201.43241353 -209.45846558 199.59255981 C-213.35014094 195.68952056 -217.23785631 191.7825518 -221.125 187.875 C-225.63949156 183.33685342 -230.15562087 178.80036187 -234.67599106 174.26807022 C-236.47772437 172.4598834 -238.2764057 170.6486984 -240.07498169 168.83737183 C-241.18411625 167.72460337 -242.29339222 166.61197584 -243.40283203 165.49951172 C-244.14483353 164.74976074 -244.14483353 164.74976074 -244.90182495 163.98486328 C-247.1301221 161.75623045 -249.36034061 159.71945811 -251.849823 157.78128052 C-252.55938141 157.19345795 -253.26893982 156.60563538 -254 156 C-254 155.34 -254 154.68 -254 154 C-254.54271545 153.78260162 -255.08543091 153.56520325 -255.64459229 153.34121704 C-258.80150225 151.54360832 -261.15650123 149.10562836 -263.68652344 146.54052734 C-264.24306107 145.98428177 -264.79959869 145.42803619 -265.3730011 144.85493469 C-267.20657442 143.01997095 -269.03296672 141.17803069 -270.859375 139.3359375 C-272.13117525 138.06040611 -273.40341853 136.78531633 -274.67608643 135.51065063 C-278.02106258 132.15804605 -281.35998851 128.79947827 -284.69769287 125.43963623 C-288.10602831 122.01082544 -291.52004745 118.58768427 -294.93359375 115.1640625 C-301.62797297 108.44824728 -308.31597466 101.72611906 -315 95 C-317.84015307 96.2917878 -319.89698388 97.64783083 -322.09692383 99.85400391 C-322.67465042 100.42865387 -323.25237701 101.00330383 -323.84761047 101.59536743 C-324.46121933 102.2161618 -325.07482819 102.83695618 -325.70703125 103.4765625 C-326.35065109 104.12064056 -326.99427094 104.76471863 -327.65739441 105.42831421 C-329.01884298 106.79278138 -330.37786275 108.15967568 -331.73461914 109.52880859 C-333.78944015 111.60173694 -335.85199987 113.66669979 -337.91601562 115.73046875 C-339.24265725 117.06203215 -340.56884344 118.39404949 -341.89453125 119.7265625 C-342.80583549 120.63953598 -342.80583549 120.63953598 -343.73554993 121.57095337 C-346.65709051 124.52423703 -349.47665826 127.52036736 -352.17684364 130.67798615 C-356.15151144 135.23723326 -360.37389307 139.51311472 -364.65560913 143.78259277 C-365.50209633 144.63063996 -366.34858352 145.47868714 -367.22072184 146.35243273 C-369.5499008 148.6848903 -371.88128233 151.01511887 -374.21365619 153.34438086 C-376.73616773 155.8646181 -379.25578556 158.38774564 -381.77578735 160.91049194 C-386.70271449 165.84185275 -391.63232532 170.77052224 -396.56292193 175.69821388 C-400.56773161 179.70076187 -404.57156016 183.70428887 -408.57469559 187.70851135 C-409.14518285 188.27915185 -409.71567011 188.84979235 -410.30344487 189.43772498 C-411.46241263 190.59701247 -412.62137816 191.75630221 -413.78034146 192.91559416 C-424.63114413 203.7692441 -435.48500264 214.61983396 -446.33991809 225.46937042 C-455.66113304 234.78610959 -464.97971124 244.10547928 -474.29638672 253.42675781 C-485.11892238 264.25463802 -495.94306918 275.0809034 -506.76981509 285.90457392 C-507.92261183 287.0570521 -509.07540647 288.20953238 -510.22819901 289.36201477 C-511.07900064 290.21258499 -511.07900064 290.21258499 -511.94699018 291.08033845 C-515.95153975 295.08402312 -519.95492479 299.08886999 -523.95786667 303.09416199 C-528.82799024 307.96708205 -533.69987497 312.83823289 -538.57406799 317.70708257 C-541.06253047 320.19290728 -543.55016879 322.67954268 -546.03566742 325.16833115 C-548.72318121 327.85934858 -551.41451945 330.54651923 -554.10629272 333.23327637 C-555.29706423 334.42739395 -555.29706423 334.42739395 -556.51189172 335.64563513 C-557.58477219 336.71460397 -557.58477219 336.71460397 -558.67932701 337.80516815 C-559.30093189 338.42661067 -559.92253676 339.0480532 -560.56297815 339.68832731 C-562 341 -562 341 -563 341 C-567.01715074 319.17263399 -572.44850451 289.10112271 -559.06649113 269.541749 C-545.65055226 251.513088 -527.58689346 236.80759619 -510.28272533 222.66248512 C-506.3579 219.40926495 -503.14320046 215.99998358 -500 212 C-498.78414607 210.85834188 -497.53918191 209.74565595 -496.25 208.6875 C-491.21637104 204.40746616 -486.63470964 199.70275595 -482 195 C-478.2304988 191.22261556 -474.44838733 187.4579317 -470.66690063 183.69255066 C-467.22435298 180.26341329 -463.78446932 176.83160887 -460.34472656 173.3996582 C-458.53605619 171.59602093 -456.72648989 169.79328162 -454.91601562 167.99145508 C-452.2879637 165.37560551 -449.66321905 162.75647535 -447.0390625 160.13671875 C-446.23779938 159.34061691 -445.43653625 158.54451508 -444.61099243 157.72428894 C-440.40224875 153.51596127 -436.36279166 149.23651292 -432.51864624 144.6912384 C-430.23590224 142.14906353 -427.66143599 140.14072025 -425 138 C-422.15562239 135.29784127 -419.53537102 132.48811584 -417 129.5 C-410.08883249 121.36294416 -410.08883249 121.36294416 -406 120 C-406 119.34 -406 118.68 -406 118 C-404.49609375 116.51953125 -404.49609375 116.51953125 -402.4375 114.8125 C-397.12677948 110.28716772 -392.26438731 105.51412087 -387.71922302 100.21850586 C-384.30809513 96.30406768 -380.73622661 92.60069132 -377.05493164 88.94140625 C-376.40042023 88.28674881 -375.74590881 87.63209137 -375.07156372 86.95759583 C-372.93679311 84.82351433 -370.79851725 82.69298335 -368.66015625 80.5625 C-367.16778522 79.07199672 -365.6756368 77.58127052 -364.18370056 76.09033203 C-360.27824587 72.18867446 -356.36979621 68.2900308 -352.46069336 64.39202881 C-348.46350202 60.40511224 -344.46918061 56.41532264 -340.47460938 52.42578125 C-332.65252958 44.61438923 -324.82727952 36.80618147 -317 29 C-313.14456201 30.58470987 -310.72305846 33.0418292 -307.80761719 35.98120117 C-307.30294418 36.48718842 -306.79827118 36.99317566 -306.27830505 37.51449585 C-304.61318124 39.18610213 -302.95515212 40.86457259 -301.296875 42.54296875 C-300.13399634 43.7121239 -298.97059697 44.88076134 -297.80670166 46.04890442 C-294.7411557 49.12775119 -291.68121585 52.21210461 -288.62286377 55.2980957 C-283.74376595 60.22028414 -278.85808016 65.1359079 -273.96891022 70.04808998 C-272.27163501 71.75548655 -270.57787693 73.46631343 -268.88446045 75.17753601 C-262.69331244 81.44302491 -262.69331244 81.44302491 -256.15917969 87.34521484 C-249.478291 93.05313821 -243.4155985 99.46272448 -237.21875 105.68359375 C-235.79550756 107.10870413 -234.37204206 108.53359176 -232.94836426 109.95826721 C-229.22425698 113.68617009 -225.50316416 117.41706756 -221.78271484 121.14862061 C-217.97676924 124.9648443 -214.16794755 128.77819517 -210.359375 132.59179688 C-202.90345019 140.05840678 -195.45071037 147.528187 -188 155 C-184.59109215 153.52630723 -182.37478178 151.62192589 -179.76055908 149.00106812 C-178.92205917 148.16531754 -178.08355927 147.32956696 -177.21965027 146.4684906 C-176.30830826 145.54995804 -175.39696625 144.63142548 -174.45800781 143.68505859 C-173.48249044 142.70897691 -172.50653212 141.73333574 -171.53016663 140.75810242 C-168.88342897 138.1119385 -166.24290245 135.45965413 -163.6034441 132.80623198 C-160.84302927 130.03331342 -158.07694845 127.26605875 -155.3114624 124.49819946 C-150.07663863 119.25715988 -144.84693394 114.01104297 -139.61904693 108.76308501 C-133.66654735 102.7882296 -127.70836677 96.81905321 -121.74970102 90.85034823 C-109.49346622 78.57320914 -97.24438858 66.28895352 -85 54 C-85.93724913 52.89185715 -86.87663603 51.78552219 -87.81689453 50.67993164 C-88.6012236 49.75550011 -88.6012236 49.75550011 -89.40139771 48.81239319 C-91.74191919 46.15885941 -94.25791559 43.82203182 -96.875 41.4375 C-97.39094727 40.96642822 -97.90689453 40.49535645 -98.43847656 40.01000977 C-102.01307798 36.78408213 -105.70112647 33.84089508 -109.671875 31.12109375 C-110.32929687 30.56615234 -110.32929687 30.56615234 -111 30 C-111 29.34 -111 28.68 -111 28 C-110.45811035 27.87471924 -109.9162207 27.74943848 -109.35791016 27.62036133 C-106.77932921 27.02173309 -104.20218878 26.41709261 -101.625 25.8125 C-100.34882812 25.51762695 -100.34882812 25.51762695 -99.046875 25.21679688 C-93.13426926 23.82433538 -87.2864705 22.25755323 -81.44140625 20.609375 C-72.11863707 17.98647738 -62.73154215 15.6856382 -53.3125 13.4375 C-43.30339285 11.04206083 -33.32355268 8.59137301 -23.38696289 5.90844727 C-18.62616492 4.63151155 -13.84709461 3.43404754 -9.0625 2.25 C-8.17626953 2.02957031 -7.29003906 1.80914062 -6.37695312 1.58203125 C-4.25158197 1.05356058 -2.12583474 0.52660272 0 0 Z " fill="#685448" transform="translate(797,230)"/>
<path d="M0 0 C0 118.14 0 236.28 0 358 C-19.47 358 -38.94 358 -59 358 C-59.22051832 319.82454779 -59.40513406 281.64969695 -59.51065329 243.47378994 C-59.52316014 238.9652729 -59.53610338 234.45675721 -59.54931641 229.94824219 C-59.55193951 229.05069025 -59.55456261 228.1531383 -59.55726521 227.22838782 C-59.60076079 212.70141482 -59.67959632 198.17483815 -59.77152796 183.64810015 C-59.86509332 168.73869298 -59.92059822 153.82949316 -59.94088495 138.91980445 C-59.95459629 129.72186023 -59.99787504 120.52503627 -60.07916467 111.32743697 C-60.13208707 105.01746949 -60.14798741 98.70807984 -60.13501377 92.39790662 C-60.12861728 88.75852096 -60.1383115 85.1210903 -60.19205475 81.48205376 C-60.24998452 77.53054275 -60.22982649 73.58155761 -60.20254517 69.62966919 C-60.23167358 68.48762217 -60.26080199 67.34557514 -60.29081309 66.16892064 C-60.16640259 59.49295346 -58.92182864 56.23414756 -54.17680931 51.4316082 C-52.47843494 49.92317905 -50.75418425 48.44314643 -49 47 C-47.65482767 45.82306408 -46.3106995 44.64493134 -44.96850586 43.46459961 C-44.32468964 42.91214569 -43.68087341 42.35969177 -43.01754761 41.79049683 C-39.0056951 38.23013019 -35.27640275 34.37659638 -31.50390625 30.56640625 C-30.19268044 29.2495005 -30.19268044 29.2495005 -28.85496521 27.9059906 C-26.08835894 25.1272522 -23.32504024 22.34528039 -20.5625 19.5625 C-16.90012503 15.87331986 -13.23419431 12.187705 -9.56640625 8.50390625 C-8.7217128 7.65091446 -7.87701935 6.79792267 -7.00672913 5.91908264 C-6.23179611 5.14084641 -5.4568631 4.36261017 -4.65844727 3.56079102 C-3.97420181 2.87130875 -3.28995636 2.18182648 -2.5849762 1.47145081 C-1 0 -1 0 0 0 Z " fill="#F8B11C" transform="translate(473,372)"/>
<path d="M0 0 C7.87309524 6.74836735 7.87309524 6.74836735 11.06762695 9.9699707 C11.78138992 10.6870369 12.49515289 11.40410309 13.23054504 12.14289856 C13.97559799 12.89624985 14.72065094 13.64960114 15.48828125 14.42578125 C16.27269089 15.21397751 17.05710052 16.00217377 17.86528015 16.81425476 C20.35013689 19.31124868 22.83170881 21.81146729 25.3125 24.3125 C28.59741658 27.62393585 31.88557876 30.93209834 35.17578125 34.23828125 C35.93095535 35.00175369 36.68612946 35.76522614 37.46418762 36.55183411 C38.16218979 37.2531395 38.86019196 37.95444489 39.5793457 38.67700195 C40.19332718 39.29622025 40.80730865 39.91543854 41.43989563 40.55342102 C42.95612034 42.09481351 42.95612034 42.09481351 45 43 C45 43.66 45 44.32 45 45 C45.57358387 45.26094121 46.14716775 45.52188243 46.73813295 45.79073095 C51.0173922 48.0785647 54.2441568 51.00235314 57 55 C58.11817926 59.15771653 58.04874273 63.14155338 57.96203613 67.42712402 C57.96887153 68.66719223 57.97570693 69.90726045 57.98274946 71.18490648 C57.9936192 74.61148484 57.9687497 78.03437693 57.92852497 81.46050787 C57.89388081 85.16046706 57.90567494 88.86031846 57.91174316 92.56039429 C57.91593203 98.9655385 57.89089627 105.3700293 57.84584045 111.77500916 C57.78074117 121.03534331 57.75998059 130.29536246 57.74993652 139.55590063 C57.73244032 154.58139138 57.67923605 169.60653409 57.60351562 184.63183594 C57.53004999 199.22491722 57.4734391 213.81790387 57.43945312 228.41113281 C57.43735134 229.31110369 57.43524955 230.21107457 57.43308407 231.13831729 C57.42264355 235.65334114 57.41253394 240.16836565 57.40258884 244.68339062 C57.31969492 282.12256956 57.17223641 319.56110455 57 357 C38.19 357 19.38 357 0 357 C0 239.19 0 121.38 0 0 Z " fill="#F39A02" transform="translate(485,373)"/>
<path d="M0 0 C0 115.17 0 230.34 0 349 C-18.48 349 -36.96 349 -56 349 C-57.0864064 312.25149356 -57.98852809 275.51847561 -58.50220114 238.75843141 C-58.56346411 234.39027704 -58.62688798 230.02215655 -58.69165039 225.65405273 C-58.7045036 224.78467459 -58.71735681 223.91529644 -58.73059952 223.0195735 C-58.94214788 209.05695609 -59.32743056 195.10452361 -59.78048701 181.14789165 C-60.24361944 166.75758984 -60.51185821 152.37250131 -60.61033624 137.97505802 C-60.67079316 129.91163972 -60.81334434 121.86934028 -61.18077278 113.81357002 C-62.44742556 85.22780848 -63.47843549 59.52174331 -43.3746952 37.20180043 C-33.03000663 26.04844827 -21.41199525 16.17602917 -9.40165222 6.87307155 C-7.35005413 5.27301057 -5.34885336 3.63610331 -3.36647129 1.9518671 C-1 0 -1 0 0 0 Z " fill="#F49408" transform="translate(733,381)"/>
<path d="M0 0 C0 95.04 0 190.08 0 288 C-18.15 288 -36.3 288 -55 288 C-55.17638934 258.0541781 -55.32409205 228.10864254 -55.40852264 198.16244152 C-55.4185282 194.62644122 -55.42888279 191.09044202 -55.43945312 187.55444336 C-55.44155161 186.85049445 -55.44365009 186.14654553 -55.44581217 185.42126483 C-55.48061582 174.02533608 -55.54368818 162.62973042 -55.61722237 151.23399328 C-55.69205469 139.53948131 -55.73647434 127.84513846 -55.75270796 116.15039688 C-55.76314436 109.58205824 -55.78769819 103.0144522 -55.84584045 96.44634819 C-55.90011789 90.26479057 -55.91689701 84.08426771 -55.90486145 77.90249443 C-55.9070634 75.63328428 -55.92299156 73.36403974 -55.9536438 71.09503555 C-55.99345959 67.995837 -55.98388298 64.90054332 -55.96203613 61.80125427 C-55.98533886 60.90338036 -56.0086416 60.00550646 -56.03265047 59.08042425 C-55.96003595 55.26917243 -55.78369306 52.92800126 -53.27248287 49.95438015 C-51.25092365 48.17995132 -49.1648694 46.59380797 -47 45 C-45.86373547 43.93536634 -44.74297467 42.85358203 -43.6484375 41.74609375 C-42.84720459 40.93990601 -42.84720459 40.93990601 -42.02978516 40.11743164 C-41.48370605 39.5630542 -40.93762695 39.00867676 -40.375 38.4375 C-39.78380371 37.84251709 -39.19260742 37.24753418 -38.58349609 36.63452148 C-36.719835 34.75880343 -34.85949158 32.87985097 -33 31 C-18.79610382 16.64058671 -18.79610382 16.64058671 -12.63232422 11.40966797 C-10.13680113 9.25454528 -7.86498634 6.9224587 -5.5625 4.5625 C-1.10879285 0 -1.10879285 0 0 0 Z " fill="#F7B113" transform="translate(403,442)"/>
<path d="M0 0 C0 94.38 0 188.76 0 286 C-17.49 286 -34.98 286 -53 286 C-53.28692485 256.28375367 -53.52682671 226.56827409 -53.66384928 196.85101577 C-53.68010727 193.33776784 -53.69693358 189.82452284 -53.71411133 186.3112793 C-53.71752136 185.61189486 -53.7209314 184.91251043 -53.72444477 184.19193252 C-53.78091806 172.88706791 -53.88336287 161.58306809 -54.00298635 150.27871547 C-54.12482337 138.66781085 -54.19584718 127.05740867 -54.22315043 115.4458949 C-54.24007067 108.92824556 -54.27971041 102.41255335 -54.37449074 95.89553261 C-54.46307432 89.75454317 -54.48988442 83.61630677 -54.47039986 77.47473907 C-54.47396138 75.22730453 -54.49962534 72.97977308 -54.54967117 70.73289299 C-54.94601175 52.01222942 -54.94601175 52.01222942 -48.45813292 44.98266286 C-46.25164812 42.89549182 -43.97671018 40.97878779 -41.54598081 39.15852487 C-39.47629945 37.60755004 -37.5752469 35.88768871 -35.65795898 34.15405273 C-35.04193817 33.62939423 -34.42591736 33.10473572 -33.79122925 32.56417847 C-30.5284323 29.71496375 -27.51422818 26.61656028 -24.47265625 23.53515625 C-23.79827011 22.85698349 -23.12388397 22.17881073 -22.42906189 21.48008728 C-20.30439646 19.34333508 -18.18305259 17.2033334 -16.0625 15.0625 C-13.24371689 12.21722279 -10.42169759 9.37521339 -7.59765625 6.53515625 C-6.94982681 5.87902847 -6.30199738 5.2229007 -5.63453674 4.54689026 C-1.11276045 0 -1.11276045 0 0 0 Z " fill="#F39A1B" transform="translate(668,444)"/>
<path d="M0 0 C2.31 1.98 4.62 3.96 7 6 C8.59410848 7.0183095 10.21916512 7.99107555 11.88090515 8.89482117 C29.23142541 18.93591726 47.26769583 33.66352959 52.76870823 53.81610966 C60.09590782 87.81757706 56.52845132 124.76760239 55.24120414 159.35138309 C54.88182238 169.11380467 54.63806101 178.87427841 54.47192383 188.6418457 C54.46010127 189.3349541 54.44827871 190.0280625 54.4360979 190.74217419 C54.37734782 194.22121169 54.3204866 197.70027702 54.26456225 201.17936099 C53.80211594 229.79782345 52.97508046 258.39397284 52 287 C34.84 287 17.68 287 0 287 C0 192.29 0 97.58 0 0 Z " fill="#F29A1B" transform="translate(553,443)"/>
<path d="M0 0 C0 73.92 0 147.84 0 224 C-19.47 224 -38.94 224 -59 224 C-59.81878966 202.8472339 -60.47909732 181.70764289 -60.86523819 160.54294968 C-61.04945228 150.71140375 -61.30044872 140.89062771 -61.71582031 131.06591797 C-64.67933207 59.5886361 -64.67933207 59.5886361 -48.76823044 41.14148331 C-42.3183402 34.3988119 -35.07224952 28.69115977 -27.17718506 23.73858643 C-21.23915719 20.00748364 -16.08747867 15.25550695 -11.19140625 10.25390625 C-10.59005859 9.64482422 -9.98871094 9.03574219 -9.36914062 8.40820312 C-8.77294922 7.79912109 -8.17675781 7.19003906 -7.5625 6.5625 C-6.3369139 5.31156569 -5.10917305 4.06273747 -3.87890625 2.81640625 C-3.3485376 2.27443604 -2.81816895 1.73246582 -2.27172852 1.17407227 C-1 0 -1 0 0 0 Z " fill="#F6A906" transform="translate(338,506)"/>
<path d="M0 0 C0 94.38 0 188.76 0 286 C-17.49 286 -34.98 286 -53 286 C-53 208.45 -53 130.9 -53 51 C-52.34 51 -51.68 51 -51 51 C-51 127.89 -51 204.78 -51 284 C-35.16 284 -19.32 284 -3 284 C-3 191.93 -3 99.86 -3 5 C-9.27 11.27 -15.54 17.54 -22 24 C-22.66 23.67 -23.32 23.34 -24 23 C-20.74592504 19.72128157 -17.48863647 16.44580355 -14.22827148 13.17333984 C-13.11864792 12.05867476 -12.0099218 10.94311557 -10.90209961 9.82666016 C-9.31336495 8.22585196 -7.72147383 6.62824388 -6.12890625 5.03125 C-5.63097061 4.52815308 -5.13303497 4.02505615 -4.62001038 3.50671387 C-1.11387171 0 -1.11387171 0 0 0 Z " fill="#F1920D" transform="translate(668,444)"/>
<path d="M0 0 C0.33 0 0.66 0 1 0 C1 93.06 1 186.12 1 282 C-16.82 282 -34.64 282 -53 282 C-53 204.12 -53 126.24 -53 46 C-51.68 45.34 -50.36 44.68 -49 44 C-49.33 44.99 -49.66 45.98 -50 47 C-50.09331081 48.33353567 -50.13363698 49.67120402 -50.1386652 51.00799084 C-50.14413964 51.82559515 -50.14961409 52.64319947 -50.15525442 53.48557967 C-50.15623253 54.3834321 -50.15721064 55.28128453 -50.15821838 56.2063446 C-50.16315636 57.16037558 -50.16809434 58.11440655 -50.17318195 59.09734756 C-50.188593 62.30797925 -50.19692734 65.5185909 -50.20532227 68.72924805 C-50.21489795 71.02522967 -50.22490785 73.32120952 -50.23532104 75.6171875 C-50.26240968 81.86266712 -50.2833978 88.10815432 -50.30332303 94.35366035 C-50.32515819 100.87599055 -50.35255894 107.39829726 -50.37937927 113.92060852 C-50.42365814 124.87194817 -50.46448774 135.82329572 -50.50268555 146.7746582 C-50.54204117 158.05526673 -50.58346756 169.33586452 -50.62768555 180.61645508 C-50.63040982 181.31163688 -50.63313409 182.00681868 -50.63594092 182.72306659 C-50.64962041 186.21054342 -50.66334068 189.69802009 -50.67708123 193.18549669 C-50.79104385 222.12364268 -50.89704305 251.06181256 -51 280 C-34.17 280 -17.34 280 0 280 C0 187.6 0 95.2 0 0 Z " fill="#F7B421" transform="translate(401,448)"/>
<path d="M0 0 C0 3 0 3 -1.50390625 4.76171875 C-2.18324219 5.39722656 -2.86257813 6.03273438 -3.5625 6.6875 C-6.26417468 9.28544546 -8.83015608 11.88801176 -11.25 14.75 C-14.33933671 18.33419613 -17.59952929 21.71200407 -20.9375 25.0625 C-21.41541992 25.54493164 -21.89333984 26.02736328 -22.38574219 26.52441406 C-25.01502544 29.14310248 -27.70969382 31.6254661 -30.53515625 34.03125 C-36.84131331 39.49588485 -42.62452261 45.51950482 -48.5 51.4375 C-49.71591114 52.6584369 -50.93205516 53.87914192 -52.1484375 55.09960938 C-55.10164966 58.06374013 -58.05169398 61.03098958 -61 64 C-62.32 63.34 -63.64 62.68 -65 62 C-64.67 61.34 -64.34 60.68 -64 60 C-62.68 60 -61.36 60 -60 60 C-57.85343056 58.22769471 -55.97157476 56.47654073 -54.03808594 54.4921875 C-53.4522876 53.90697327 -52.86648926 53.32175903 -52.26293945 52.71881104 C-50.32712108 50.78020375 -48.40585784 48.82780859 -46.484375 46.875 C-45.14575051 45.52891604 -43.80624072 44.18371193 -42.46588135 42.83935547 C-38.93888856 39.29708344 -35.42407142 35.74296402 -31.91162109 32.1862793 C-28.32593465 28.55968995 -24.72891106 24.94438476 -21.1328125 21.328125 C-14.0773731 14.22977427 -7.03473969 7.11886128 0 0 Z " fill="#513A2C" transform="translate(672,324)"/>
<path d="M0 0 C0.33 0.99 0.66 1.98 1 3 C-1.23112161 5.23112161 -3.46245236 7.46202408 -5.6953125 9.69140625 C-7.3274298 11.32628985 -8.94879682 12.9719382 -10.5625 14.625 C-13.9174809 17.89395575 -17.45115388 20.94429379 -21 24 C-21.66 23.67 -22.32 23.34 -23 23 C-15.41 15.41 -7.82 7.82 0 0 Z " fill="#543E32" transform="translate(282,458)"/>
<path d="M0 0 C0 3 0 3 -2.625 5.91796875 C-3.74249406 7.01550756 -4.86785643 8.10507895 -6 9.1875 C-6.57234375 9.74630859 -7.1446875 10.30511719 -7.734375 10.88085938 C-9.14962788 12.26073093 -10.57397155 13.63126734 -12 15 C-12.66 14.67 -13.32 14.34 -14 14 C-6.73076923 4.57692308 -6.73076923 4.57692308 -2 3 C-2 2.34 -2 1.68 -2 1 C-1.34 0.67 -0.68 0.34 0 0 Z " fill="#5F4A40" transform="translate(393,347)"/>
<path d="M0 0 C0 3 0 3 -1.57421875 4.8671875 C-2.27160156 5.52976562 -2.96898437 6.19234375 -3.6875 6.875 C-4.41324219 7.57367188 -5.13898437 8.27234375 -5.88671875 8.9921875 C-6.58410156 9.65476562 -7.28148437 10.31734375 -8 11 C-9.00356927 11.99641794 -10.00431338 12.99570514 -11 14 C-11.66 14.66 -12.32 15.32 -13 16 C-13.66 15.67 -14.32 15.34 -15 15 C-10.05 10.05 -5.1 5.1 0 0 Z " fill="#4D362A" transform="translate(688,308)"/>
<path d="M0 0 C0 4.35251187 -2.06165511 5.92809398 -5 9 C-7.171875 9.6796875 -7.171875 9.6796875 -9 10 C-8.06409496 8.8944811 -7.12620142 7.79064547 -6.1875 6.6875 C-5.66542969 6.07261719 -5.14335938 5.45773437 -4.60546875 4.82421875 C-3.12827531 3.14575321 -1.59960869 1.56117966 0 0 Z " fill="#F18A0B" transform="translate(643,468)"/>
<path d="M0 0 C0.66 0 1.32 0 2 0 C2 0.66 2 1.32 2 2 C1.34 2 0.68 2 0 2 C-0.226875 2.61875 -0.45375 3.2375 -0.6875 3.875 C-2.37929835 6.61410209 -3.99244161 7.05024472 -7 8 C-6.02133662 6.85373678 -5.04205413 5.70800212 -4.0625 4.5625 C-3.51722656 3.92441406 -2.97195313 3.28632812 -2.41015625 2.62890625 C-1.63204305 1.73008851 -0.84063472 0.84063472 0 0 Z " fill="#F6A718" transform="translate(315,527)"/>
<path d="M0 0 C0 3 0 3 -1.3125 4.38671875 C-2.875 5.59114583 -4.4375 6.79557292 -6 8 C-4.73058503 4.08597051 -3.48832306 2.20927127 0 0 Z " fill="#5C473C" transform="translate(378,362)"/>
</svg>
